<svg width="45" height="33" viewBox="0 0 45 33" fill="none" xmlns="http://www.w3.org/2000/svg"><circle cx="28.5" cy="16.5" r="16.5" fill="#35736E" fill-opacity=".2"/><path d="M14.5 29C21.956 29 28 22.956 28 15.5S21.956 2 14.5 2 1 8.044 1 15.5 7.044 29 14.5 29Z" stroke="#000" stroke-width="2" stroke-linecap="round" stroke-linejoin="round"/><path d="M14.5 20.9a5.4 5.4 0 1 0 0-10.8 5.4 5.4 0 0 0 0 10.8Zm3.82-1.58 5.724 5.724m-19.088 0 5.724-5.724m7.64-7.64 5.724-5.724M18.32 11.68l4.766-4.766m-18.13-.958 5.724 5.724" stroke="#000" stroke-width="2" stroke-linecap="round" stroke-linejoin="round"/></svg>